# xmcd
#
# Track frame offsets:
# 150
# 21462
# 38686
# 58282
# 77874
# 97115
# 114908
# 130822
# 148395
# 167189
#
# Disc length: 2504 seconds
#
#
# Revision: 0
# Processed by: cddbd v1.5.1PL2 Copyright (c) Steve Scherf et al.
# Submitted via: FreeRIP 2.945 
#
DISCID=9109c60a
DTITLE=ÇELÝK - Kod Adý Aþk
DYEAR=2006
DGENRE=Other
TTITLE0=Sevenler Anlar
TTITLE1=Arasan Da Aramasan Da
TTITLE2=Bana Yalanlar Söyle
TTITLE3=Kod Adý Aþk
TTITLE4=Hýzlý Hýzlý
TTITLE5=Efkarlýyým
TTITLE6=Nolursa Olsun
TTITLE7=Bende Yüksek Gerilim Var
TTITLE8=Kutlaman Lazým
TTITLE9=Çekemedim Akça Kýzýn Göçünü
EXTD=
EXTT0=
EXTT1=
EXTT2=
EXTT3=
EXTT4=
EXTT5=
EXTT6=
EXTT7=
EXTT8=
EXTT9=
PLAYORDER=
